<svg xmlns="http://www.w3.org/2000/svg" viewBox="8 8 86 70" width="100%" height="100%">
  <defs>
    <linearGradient id="gp" x1="0%" y1="100%" x2="100%" y2="0%">
      <stop offset="0%" stop-color="#F97B22" />
      <stop offset="100%" stop-color="#FFC14F" />
    </linearGradient>
  </defs>

  <g stroke="#1F242C" stroke-width="3.5" stroke-linejoin="round" fill="white">
    <!-- Gauge segments (semi-circle, open at bottom) -->
    <!-- Segment 1: left -->
    <path d="M 19.5,72 A 35,35 0 0,1 13,46 L 27,48 A 21,21 0 0,0 31.5,65 Z" />
    <!-- Segment 2 -->
    <path d="M 13,46 A 35,35 0 0,1 20,26 L 32,33 A 21,21 0 0,0 27,48 Z" />
    <!-- Segment 3 -->
    <path d="M 20,26 A 35,35 0 0,1 40,14 L 44,28 A 21,21 0 0,0 32,33 Z" />
    <!-- Segment 4 -->
    <path d="M 40,14 A 35,35 0 0,1 62,14 L 58,28 A 21,21 0 0,0 44,28 Z" />
    <!-- Segment 5 -->
    <path d="M 62,14 A 35,35 0 0,1 81,27 L 70,34 A 21,21 0 0,0 58,28 Z" />
    <!-- Segment 6: right -->
    <path d="M 81,27 A 35,35 0 0,1 88,47 L 74,49 A 21,21 0 0,0 70,34 Z" />
  </g>

  <!-- Needle pointing ~2 o'clock -->
  <path d="M 50,52 L 48,50 L 72,26 L 50,52 Z"
        fill="url(#gp)" stroke="#1F242C" stroke-width="3" stroke-linejoin="round" stroke-linecap="round" />
  <line x1="50" y1="52" x2="72" y2="26" stroke="url(#gp)" stroke-width="6" stroke-linecap="round" />

  <!-- Center dot -->
  <circle cx="50" cy="52" r="5" fill="white" stroke="#1F242C" stroke-width="3.5" />
</svg>
