<svg xmlns="http://www.w3.org/2000/svg" viewBox="0 0 100 100" width="100%" height="100%">
  <g stroke="#1F242C" stroke-width="5" stroke-linejoin="round" stroke-linecap="round" fill-rule="evenodd">
    
    <g transform="translate(50, 50) rotate(-25)">
      <path fill="#F97B22"
            d="M 0,-40 
               L 0,6 
               L 12,16 
               A 18.5 18.5 0 1 1 -12,16 
               L -12,6 
               L -12,-40 
               A 6 6 0 0 1 0,-40 Z 
               M 0,22 
               A 8 8 0 1 0 0,38 
               A 8 8 0 1 0 0,22 Z" />
    </g>

    <g transform="translate(50, 50) rotate(25)">
      <path fill="#FFFFFF"
            d="M 0,-40 
               L 0,6 
               L -12,16 
               A 18.5 18.5 0 1 0 12,16 
               L 12,6 
               L 12,-40 
               A 6 6 0 0 0 0,-40 Z 
               M 0,22 
               A 8 8 0 1 1 0,38 
               A 8 8 0 1 1 0,22 Z" />
    </g>
  </g>

  <circle cx="50" cy="50" r="1.5" fill="#1F242C" />
</svg>